# xmcd CD database file
#
# Track frame offsets:
#	150
#	24926
#	39368
#	63341
#	82306
#	101175
#	116184
#	133204
#	149011
#	164312
#	186675
#	207164
#	225135
#	241069
#	260716
#	270446
#
# Disc length: 3843 seconds
#
# Revision: 0
# Processed by: cddbd v1.5.2PL0 Copyright (c) Steve Scherf et al.
# Submitted via: CDex 1.51
#
DISCID=eb0f0110
DTITLE=Bobby Dirninger - In The End
DYEAR=2008
DGENRE=Blues
TTITLE0=In The End
TTITLE1=Gogo Town
TTITLE2=The Dudes Who Shot J.W. Down
TTITLE3=C'est la vie
TTITLE4=Strange Attitudes
TTITLE5=The Old Cafe Downtown
TTITLE6=Tom's Band
TTITLE7=House Of Blues
TTITLE8=Rollin Round Mississippi
TTITLE9=Black Night (Live)
TTITLE10=Honey Please Don't Go (Live)
TTITLE11=Change Of Season (Live)
TTITLE12=I Put A Spell On You (Live)
TTITLE13=Worried Life Blues (Live)
TTITLE14=Baby I'm In The Mood (Live)
TTITLE15=Pacomoon Annie (Live)
EXTD=YEAR: 2008
EXTT0=
EXTT1=
EXTT2=
EXTT3=
EXTT4=
EXTT5=
EXTT6=
EXTT7=
EXTT8=
EXTT9=
EXTT10=
EXTT11=
EXTT12=
EXTT13=
EXTT14=
EXTT15=
PLAYORDER=
